<svg id="Calque_1" data-name="Calque 1" xmlns="http://www.w3.org/2000/svg" viewBox="0 0 374.17 59.53"><defs><style>.cls-1{fill:#1d1d1b;}.cls-2{fill:#d91419;}.cls-3{fill:#94c11f;}.cls-4{fill:#577583;}</style></defs><title>logoAFF</title><path class="cls-1" d="M132.2,51.41v0c0-1.68,1.51-2.59,3.55-2.59a9.41,9.41,0,0,1,2.87.44v-.54c0-1.82-1.09-2.71-2.87-2.71a5.74,5.74,0,0,0-2.61.68l-.2-.45a6.31,6.31,0,0,1,2.84-.7,3.42,3.42,0,0,1,2.55.87,3.15,3.15,0,0,1,.8,2.28v5h-.51V52a3.6,3.6,0,0,1-3.38,1.87C133.71,53.86,132.21,53,132.2,51.41Zm6.44-.71v-1a9.27,9.27,0,0,0-2.9-.44c-1.77,0-3,.75-3,2.08v0c0,1.32,1.19,2,2.53,2C137.23,53.38,138.64,52.13,138.64,50.7Z" transform="translate(0)"/><path class="cls-1" d="M152.08,45.61h.59L156,53.07l3.3-7.48h.56l-3.65,8.1h-.42Z" transform="translate(0)"/><path class="cls-1" d="M165.18,42.4h.69v1h-.69Zm.09,3.18h.52l0,8h-.53Z" transform="translate(0)"/><path class="cls-1" d="M171.31,52.57l.3-.4a4.86,4.86,0,0,0,3,1.09c1.29,0,2.29-.69,2.29-1.67v0c0-1.13-1.22-1.48-2.44-1.81-1.5-.43-2.79-.84-2.8-2.18v0c0-1.19,1.1-2.1,2.74-2.11a5.21,5.21,0,0,1,2.82.89l-.28.43a4.59,4.59,0,0,0-2.55-.84c-1.33,0-2.2.69-2.2,1.58v0c0,1,1.13,1.36,2.44,1.73,1.47.39,2.79.85,2.79,2.26v0c0,1.32-1.23,2.2-2.84,2.2A5.29,5.29,0,0,1,171.31,52.57Z" transform="translate(0)"/><path class="cls-1" d="M183.1,42.36h.69v1h-.69Zm.09,3.19h.52l0,8h-.53Z" transform="translate(0)"/><path class="cls-1" d="M189.4,49.59v0a4.15,4.15,0,0,1,4.17-4.22,4.1,4.1,0,0,1,4.15,4.17v0a4.16,4.16,0,1,1-8.32.05Zm7.78,0v0a3.65,3.65,0,0,0-3.64-3.71A3.58,3.58,0,0,0,190,49.54v0a3.61,3.61,0,1,0,7.22,0Z" transform="translate(0)"/><path class="cls-1" d="M203.3,45.52h.51v1.92a3.26,3.26,0,0,1,3.09-2.11,3.18,3.18,0,0,1,3.32,3.52v4.7h-.51V48.92c0-1.87-1-3.13-2.87-3.12a3.09,3.09,0,0,0-3,3.22v4.53h-.51Z" transform="translate(0)"/><path class="cls-1" d="M224.44,51.46V45.94H223.2v-.46h1.23V42.79h.51v2.69h2.91v.46h-2.91v5.47a1.54,1.54,0,0,0,1.67,1.76,2.72,2.72,0,0,0,1.21-.29v.5a2.83,2.83,0,0,1-1.26.27A2,2,0,0,1,224.44,51.46Z" transform="translate(0)"/><path class="cls-1" d="M232.5,49.51v0a4.13,4.13,0,0,1,4.17-4.21,4.09,4.09,0,0,1,4.15,4.17v0a4.16,4.16,0,1,1-8.32,0Zm7.78,0v0a3.65,3.65,0,0,0-3.64-3.71,3.59,3.59,0,0,0-3.58,3.72v0a3.61,3.61,0,1,0,7.22,0Z" transform="translate(0)"/><path class="cls-1" d="M253.44,52.43l.31-.4a4.91,4.91,0,0,0,3,1.09c1.3,0,2.3-.69,2.3-1.68v0c0-1.13-1.22-1.48-2.45-1.81-1.49-.43-2.79-.84-2.79-2.18v0c0-1.2,1.1-2.11,2.74-2.11a5.16,5.16,0,0,1,2.82.89l-.29.43a4.54,4.54,0,0,0-2.55-.84c-1.32,0-2.19.69-2.19,1.58v0c0,1,1.13,1.37,2.44,1.73,1.47.4,2.79.86,2.79,2.26v0c0,1.33-1.24,2.21-2.85,2.21A5.33,5.33,0,0,1,253.44,52.43Z" transform="translate(0)"/><path class="cls-1" d="M265.23,41.81h.51v5.51a3.24,3.24,0,0,1,3.08-2.11,3.18,3.18,0,0,1,3.32,3.52v4.7h-.51V48.81c0-1.87-1-3.12-2.87-3.12a3.07,3.07,0,0,0-3,3.22v4.53h-.51Z" transform="translate(0)"/><path class="cls-1" d="M277.49,51.16v0c0-1.67,1.51-2.58,3.55-2.58a8.88,8.88,0,0,1,2.87.44v-.54c0-1.82-1.09-2.71-2.88-2.71a5.68,5.68,0,0,0-2.61.67l-.19-.44a6.28,6.28,0,0,1,2.84-.71,3.54,3.54,0,0,1,2.55.87,3.17,3.17,0,0,1,.8,2.28v5h-.51V51.73a3.57,3.57,0,0,1-3.37,1.87C279,53.61,277.49,52.78,277.49,51.16Zm6.44-.72v-1A8.91,8.91,0,0,0,281,49c-1.77,0-3,.76-3,2.08v0c0,1.33,1.2,2,2.54,2C282.51,53.12,283.93,51.88,283.93,50.44Z" transform="translate(0)"/><path class="cls-1" d="M290.41,45.36h.51v2.46a3.64,3.64,0,0,1,3.41-2.62v.52h-.08c-1.94,0-3.33,1.89-3.32,3.87V53.4h-.51Z" transform="translate(0)"/><path class="cls-1" d="M298.41,49.37v0a3.93,3.93,0,0,1,3.83-4.19c2.42,0,3.68,2.07,3.69,4.22v.18h-7a3.47,3.47,0,0,0,3.45,3.53,3.65,3.65,0,0,0,2.89-1.49l.38.3a4,4,0,0,1-3.28,1.67A4,4,0,0,1,298.41,49.37Zm7-.29c-.08-1.75-1.15-3.45-3.16-3.45A3.37,3.37,0,0,0,299,49.09Z" transform="translate(0)"/><path class="cls-2" d="M77.5,10.78,67.28,33.92H64L76.12,7H79L91.11,33.92H87.64Z" transform="translate(0)"/><path class="cls-3" d="M84.25,33.92,77.48,18.49,70.67,33.92Z" transform="translate(0)"/><path class="cls-4" d="M104,14.29V16.8H97.76V33.92H94.82V16.8H92.11V14.25h2.71V12.53c0-4.31,2.17-6.59,6-6.59a9,9,0,0,1,3.24.49V9a9.68,9.68,0,0,0-2.86-.5c-2.29,0-3.43,1.37-3.43,4.2v1.6Z" transform="translate(0)"/><path class="cls-4" d="M109.24,33.92H106.3V14.21h2.94v5.15c1.45-3.28,4.31-5.64,8.05-5.49V17h-.23c-4.31,0-7.82,3.09-7.82,9Z" transform="translate(0)"/><path class="cls-4" d="M120.42,12.5V9.26h3.36V12.5Zm.19,21.42V14.21h2.94V33.92Z" transform="translate(0)"/><path class="cls-4" d="M137.85,33.92a10.12,10.12,0,0,1-10.1-10.25,10.26,10.26,0,0,1,18-6.83L143.8,18.9c-1.56-1.64-3.32-3-6-3-4,0-7.05,3.39-7.05,7.66s3.12,7.7,7.24,7.7a8.16,8.16,0,0,0,6-2.93l1.87,1.75A10.18,10.18,0,0,1,137.85,33.92Z" transform="translate(0)"/><path class="cls-4" d="M150.49,17.57l-.88-2.41a16.29,16.29,0,0,1,7.17-1.64c5.37,0,8.38,2.75,8.38,7.94v12h-2.82v-3a8.64,8.64,0,0,1-7.13,3.39c-3.66,0-7.36-2.05-7.36-6.17s3.44-6.41,8.43-6.41a21.07,21.07,0,0,1,6.06.84v-.69c0-3.54-2.17-5.37-5.87-5.37A13.67,13.67,0,0,0,150.49,17.57Zm.34,10.06c0,2.52,2.28,4,4.95,4,3.63,0,6.6-2.21,6.6-5.34V24.35a20.56,20.56,0,0,0-5.79-.83C152.89,23.52,150.83,25.12,150.83,27.63Z" transform="translate(0)"/><path class="cls-1" d="M278.46,24v1.19l-2.59,1.15v5.33l2.59,1.16v1.13l-9.88-4.44v-1Zm-8.58,5,5,2.23V26.73Z" transform="translate(0)"/><path class="cls-1" d="M268.64,16.36V15.28h9.8v.88l-8,6.34h8v1.07l-9.8,0v-1l7.84-6.19Z" transform="translate(0)"/><path class="cls-1" d="M278.44,10.87v3.4l-9.8,0v-3.4a4.91,4.91,0,1,1,9.81,0Zm-8.78,0v2.29h7.76v-2.3a3.88,3.88,0,1,0-7.75,0Z" transform="translate(0)"/><path class="cls-4" d="M206.54,31.37a8.19,8.19,0,0,0,6.22-2.78l1.83,1.63a10.14,10.14,0,0,1-8.12,3.7c-5.41,0-9.84-4.15-9.84-10.29,0-5.72,4-10.3,9.46-10.3,5.83,0,9.19,4.66,9.19,10.45a7.72,7.72,0,0,1,0,.92H199.61C200,29,203.08,31.37,206.54,31.37Zm5.76-8.85c-.3-3.58-2.36-6.71-6.29-6.71-3.43,0-6,2.86-6.4,6.71Z" transform="translate(0)"/><path class="cls-4" d="M227.72,31.37a8.16,8.16,0,0,0,6.21-2.78l1.84,1.63a10.17,10.17,0,0,1-8.13,3.7c-5.41,0-9.83-4.15-9.83-10.29,0-5.72,4-10.3,9.45-10.3,5.84,0,9.19,4.66,9.19,10.45a7.72,7.72,0,0,1,0,.92H220.78C221.2,29,224.25,31.37,227.72,31.37Zm5.76-8.85c-.31-3.58-2.37-6.71-6.29-6.71-3.44,0-6,2.86-6.41,6.71Z" transform="translate(0)"/><path class="cls-4" d="M256,33.51v-4c-1.61,2.36-3.93,4.38-7.56,4.38-4.72,0-9.41-3.73-9.41-10.25s4.69-10.3,9.41-10.3a8.89,8.89,0,0,1,7.56,4.2V5.67H259V33.51ZM249,16c-3.81,0-6.94,2.82-6.94,7.63s3.2,7.66,6.94,7.66a7.35,7.35,0,0,0,7.13-7.66A7.34,7.34,0,0,0,249,16Z" transform="translate(0)"/><polygon class="cls-3" points="180.76 21.61 193.74 21.61 193.74 18.48 180.76 18.48 180.76 8.85 195.55 8.85 195.55 5.67 177.34 5.67 177.34 21.61 180.76 21.61"/><rect class="cls-2" x="177.34" y="24.26" width="3.42" height="9.67"/><path class="cls-4" d="M318,33.92a10.11,10.11,0,0,1-10.23-10.25A10.28,10.28,0,1,1,318,33.92Zm0-18c-4.28,0-7.21,3.39-7.21,7.66a7.4,7.4,0,0,0,7.28,7.7c4.27,0,7.25-3.39,7.25-7.62A7.45,7.45,0,0,0,318,15.93Z" transform="translate(0)"/><path class="cls-4" d="M341.18,33.92A10.11,10.11,0,0,1,331,23.67a10.28,10.28,0,1,1,10.22,10.25Zm0-18c-4.27,0-7.21,3.39-7.21,7.66a7.41,7.41,0,0,0,7.28,7.7c4.28,0,7.25-3.39,7.25-7.62A7.45,7.45,0,0,0,341.18,15.93Z" transform="translate(0)"/><path class="cls-4" d="M371.24,33.51v-4c-1.61,2.36-3.93,4.38-7.55,4.38-4.73,0-9.42-3.73-9.42-10.25s4.69-10.3,9.42-10.3a8.89,8.89,0,0,1,7.55,4.2V5.67h2.93V33.51Zm-7-17.51c-3.81,0-6.94,2.82-6.94,7.63s3.2,7.66,6.94,7.66a7.35,7.35,0,0,0,7.13-7.66A7.34,7.34,0,0,0,364.22,16Z" transform="translate(0)"/><polygon class="cls-3" points="291.51 21.61 304.5 21.61 304.5 18.48 291.51 18.48 291.51 8.85 306.31 8.85 306.31 5.67 288.1 5.67 288.1 21.61 291.51 21.61"/><rect class="cls-2" x="288.1" y="24.26" width="3.42" height="9.67"/><path class="cls-2" d="M12.4,1.72A4,4,0,0,1,12,2L11.9,2a2.44,2.44,0,0,1-.43,0h-.08L11,2a2.18,2.18,0,0,0-.57,0,.58.58,0,0,1-.23,0,2,2,0,0,1-.64-.49,2.63,2.63,0,0,0-.33-.29s-.11-.07-.3,0l-.1,0c-.28.07-.38.36-.45.76a2.14,2.14,0,0,1-.05.23A2,2,0,0,1,7.19,3.59a2,2,0,0,0-1,.81c-.06.14-.14.27-.21.41a1.91,1.91,0,0,0-.33,1.63A.49.49,0,0,1,5.53,7l-.34.38A2.66,2.66,0,0,1,4,8.3a2.92,2.92,0,0,0-1.82,1.76L2,10.39c-.22.38-.44.76-.66,1.12C1,12.18.56,12.88.19,13.58a1,1,0,0,0,.12,1.25A.75.75,0,0,1,.38,15a1.75,1.75,0,0,1,.11.44,1.85,1.85,0,0,1,0,.23.36.36,0,0,1,0,.1v.06a.57.57,0,0,0,0,.29A3.5,3.5,0,0,1,.17,19L0,19.34a.19.19,0,0,0,0,.08s0,0,0,0C4.39,9.26,9.92,3.77,12.4,1.72Z" transform="translate(0)"/><path class="cls-3" d="M52.82,21.67h0a.16.16,0,0,0-.13,0l-.55.16c-.4.11-.78.22-1.16.3s-.65.13-1,.19a11.38,11.38,0,0,0-1.8.4c-.45.15-.79.16-1.09-.26A1.56,1.56,0,0,1,46.9,22a.56.56,0,0,1,0-.34.58.58,0,0,0-.24-.61c-.46-.41-.95-.8-1.43-1.19l-.81-.65a1.85,1.85,0,0,1-.8-1.19,2.1,2.1,0,0,0-.68-1.34A2.09,2.09,0,0,1,42.11,15a2.88,2.88,0,0,0-.48-1.56A3.79,3.79,0,0,1,40.76,12a14.77,14.77,0,0,0-1.1-2.34.52.52,0,0,1,.07-.6l0,0a3,3,0,0,0,0-3.27.14.14,0,0,0-.12-.06,5.09,5.09,0,0,0-.55,0,1.81,1.81,0,0,1-.92,0l0,0a1.58,1.58,0,0,0-1.73,0h0l-.15.07,0,0a2.16,2.16,0,0,1-.4.14.45.45,0,0,1-.23,0c-1.32-.34-2.67-.73-3.92-1.11l-.06,0a1.24,1.24,0,0,1-.38-.28,1.53,1.53,0,0,0-1.9-.11,1,1,0,0,0-.68,1.31.5.5,0,0,1,0,.34.93.93,0,0,1,0,.1.51.51,0,0,1-.53.24,1.42,1.42,0,0,1-.31-.08c-.53-.17-1-.38-1.64-.64l-.16-.07-.25-.1a.51.51,0,0,1-.25-.27c-.36-.89-1.09-1-2-1h-.08a2.8,2.8,0,0,1-1.51-.64l-.06,0a.55.55,0,0,1-.22-.35.5.5,0,0,1,.11-.39.35.35,0,0,0,.05-.08c.24-.37.4-.8.24-.93a.78.78,0,0,1-.16-.15.51.51,0,0,1-.07-.55,1.8,1.8,0,0,1,.2-.31l0,0a.16.16,0,0,0,0-.12.13.13,0,0,0-.07-.09L21.63.37a3.87,3.87,0,0,0-.49-.26c-.12,0-.48-.19-.68,0a1.94,1.94,0,0,1-1.37.28h-.32a13.08,13.08,0,0,0-1.86.09l-.45.06a20.1,20.1,0,0,0-2.75.5,2.82,2.82,0,0,0-.56.31C6.65,7.08,2.42,19.9,1.59,22.59a1.5,1.5,0,0,1,.13.11,3.14,3.14,0,0,0,.57.58A1.58,1.58,0,0,1,3,24.55a1.28,1.28,0,0,0,.62.88c.51.38,1,.75,1.55,1.1h0l.9.63a2,2,0,0,0,2.22.33,4,4,0,0,1,3-.17,1.58,1.58,0,0,0,.83,0c.36-.12.71-.26,1.05-.39a7.82,7.82,0,0,1,2.67-.7c.78,0,1.21.23,1.39.82a1,1,0,0,0,1.32.75l.49-.07.37-.05h.12a1.26,1.26,0,0,1,.83.37,1,1,0,0,1,.32.76c0,.12,0,.25,0,.37a5.92,5.92,0,0,1-.42,1.92,1.48,1.48,0,0,0,.4,1.87A8.16,8.16,0,0,1,23,36.33a3.05,3.05,0,0,0,.2.46,4.49,4.49,0,0,1,.19.44.53.53,0,0,1,0,.33,1.65,1.65,0,0,0,.25,1.51,1.22,1.22,0,0,1-.28,1.57,3,3,0,0,0-.57,1l-.12.27a4.27,4.27,0,0,0-.4,1.41,5.13,5.13,0,0,0,.29,2.22,19.41,19.41,0,0,0,1.15,2.16c.19.31.38.63.55.94a.61.61,0,0,1,0,.12l0,.19.12,1v0a20,20,0,0,0,.36,2.28,4,4,0,0,0,.61,1.23l.27.43c.08.14.17.27.25.39a3.46,3.46,0,0,1,.29.45c.36.72.62,1.28.84,1.82a2.52,2.52,0,0,1,.16.51.5.5,0,0,1,0,.32c-.34.67,0,1.09.41,1.54h0l.17.19a1.34,1.34,0,0,0,.93.45h.11c.5-.08,1-.22,1.49-.34s.76-.2,1.14-.28h.15l.25.06a1.15,1.15,0,0,0,.55,0l.41-.12a4.77,4.77,0,0,0,2.7-1.51l.36-.47,1.6-2.1a3.21,3.21,0,0,1,.46-.51,2.33,2.33,0,0,0,.8-2.37,1.58,1.58,0,0,1,0-.28.52.52,0,0,1,.25-.42l.19-.1a3.82,3.82,0,0,1,.36-.13,2.22,2.22,0,0,0,.66-.31c.17-.14.6-.57.56-1A16.22,16.22,0,0,0,40.46,48c-.06-.31-.13-.63-.18-.94,0,0,0-.07,0-.11a.51.51,0,0,1,.2-.45,9.07,9.07,0,0,0,.92-.83,4.55,4.55,0,0,1,2-1.36,2.47,2.47,0,0,0,1.5-2l0-.28c0-.55-.09-1.11-.17-1.67a3.81,3.81,0,0,1,0-.48,1.29,1.29,0,0,0-.46-1.29A.67.67,0,0,1,44,38.3a.11.11,0,0,0,0-.06,2.18,2.18,0,0,1-.19-1.12,2.31,2.31,0,0,0-.29-1.36.5.5,0,0,1-.05-.49c.08-.18.15-.36.22-.54a7.09,7.09,0,0,1,.8-1.58,19.09,19.09,0,0,1,2.39-2.45,15.9,15.9,0,0,1,1.27-1c.37-.28.76-.56,1.12-.87a10.26,10.26,0,0,0,2.21-3.08c.23-.44.45-.85.71-1.26a4.75,4.75,0,0,0,.67-2.72A.13.13,0,0,0,52.82,21.67Z" transform="translate(0)"/><path class="cls-3" d="M51.23,40.16h0a.24.24,0,0,0-.11.06,2.34,2.34,0,0,0-.25.56c-.13.35-.23.65-.63.7a.15.15,0,0,0-.13.12c-.16,1-.94,1.3-1.76,1.59L48,43.3a1.52,1.52,0,0,0-.62.53,2,2,0,0,0-.21,1.83,1.6,1.6,0,0,1,0,.21A1.76,1.76,0,0,1,47.14,47c-.54.86-.88,1.53-.4,2.35a.53.53,0,0,1,.06.35s0,.07,0,.1a1.7,1.7,0,0,0,1.33,1.56h.07a2.36,2.36,0,0,0,1.71-1l.31-.94c.44-1.31.89-2.67,1.28-4a7.53,7.53,0,0,0,.2-1.46.51.51,0,0,1,.37-.46l.22-.08a.15.15,0,0,0,.09-.18c-.07-.26-.11-.53-.16-.82a3.6,3.6,0,0,0-.87-2.18A.16.16,0,0,0,51.23,40.16Zm-5,6.33h0Z" transform="translate(0)"/></svg>